<svg width="15" height="15" viewBox="0 0 15 15" fill="none" xmlns="http://www.w3.org/2000/svg">
<g clip-path="url(#clip0_66_437)">
<path d="M12.8242 1.80732L13.1537 2.13684C13.4097 2.39283 13.4097 2.80677 13.1537 3.06004L12.3613 3.85524L11.1058 2.5998L11.8983 1.80732C12.1543 1.55133 12.5682 1.55133 12.8215 1.80732H12.8242ZM6.52795 7.1804L10.1826 3.523L11.4381 4.77844L7.78067 8.43312C7.70169 8.51209 7.60365 8.56928 7.49744 8.59924L5.90431 9.05403L6.3591 7.4609C6.38906 7.35469 6.44625 7.25665 6.52522 7.17767L6.52795 7.1804ZM10.9751 0.884117L5.60202 6.25447C5.3651 6.4914 5.19353 6.7828 5.10366 7.10142L4.32479 9.82473C4.25943 10.0535 4.32207 10.2986 4.49091 10.4674C4.65976 10.6363 4.90486 10.6989 5.13361 10.6335L7.85692 9.85468C8.17827 9.76209 8.46966 9.59052 8.70387 9.35632L14.0769 3.98596C14.8422 3.22071 14.8422 1.97889 14.0769 1.21364L13.7474 0.884117C12.9822 0.118869 11.7404 0.118869 10.9751 0.884117ZM3.21096 1.94621C1.88744 1.94621 0.814453 3.01919 0.814453 4.34271V11.7501C0.814453 13.0736 1.88744 14.1466 3.21096 14.1466H10.6184C11.9419 14.1466 13.0149 13.0736 13.0149 11.7501V8.7C13.0149 8.3378 12.7235 8.04641 12.3613 8.04641C11.9991 8.04641 11.7077 8.3378 11.7077 8.7V11.7501C11.7077 12.352 11.2202 12.8394 10.6184 12.8394H3.21096C2.60911 12.8394 2.12164 12.352 2.12164 11.7501V4.34271C2.12164 3.74086 2.60911 3.25339 3.21096 3.25339H6.26106C6.62326 3.25339 6.91466 2.962 6.91466 2.5998C6.91466 2.2376 6.62326 1.94621 6.26106 1.94621H3.21096Z" fill="white"/>
</g>
<defs>
<clipPath id="clip0_66_437">
<rect width="13.9433" height="13.9433" fill="white" transform="translate(0.814453 0.203247)"/>
</clipPath>
</defs>
</svg>
