<svg width="23" height="23" viewBox="0 0 23 23" fill="none" xmlns="http://www.w3.org/2000/svg">
<path d="M4.78138 4.7314L4.78229 4.73138C4.82513 4.73126 4.8679 4.7347 4.91016 4.74169H8.14136C8.39805 3.11946 9.80856 1.86669 11.5001 1.86669C13.1917 1.86669 14.6022 3.11946 14.8589 4.74169H18.0913C18.1702 4.72932 18.2505 4.72932 18.3294 4.74169H19.8852H19.8856V4.79169C19.9808 4.79034 20.0754 4.80794 20.1637 4.84345C20.2521 4.87897 20.3326 4.9317 20.4004 4.99857C20.4682 5.06545 20.5221 5.14514 20.5589 5.23301C20.5956 5.32088 20.6145 5.41518 20.6145 5.51044C20.6145 5.60569 20.5956 5.69999 20.5589 5.78786C20.5221 5.87574 20.4682 5.95543 20.4004 6.0223C20.3326 6.08918 20.2521 6.14191 20.1637 6.17742C20.0754 6.21294 19.9808 6.23053 19.8856 6.22919L4.78138 4.7314ZM4.78138 4.7314C4.74457 4.7322 4.70787 4.73564 4.67156 4.74169H3.11508L4.78138 4.7314ZM9.27134 8.79803C9.41322 8.65182 9.60734 8.56791 9.81105 8.56473C9.91394 8.56312 10.0161 8.58219 10.1115 8.62079C10.2069 8.6594 10.2935 8.71676 10.3664 8.78947C10.4392 8.86219 10.4966 8.94878 10.5354 9.04412C10.574 9.13933 10.5932 9.24133 10.5918 9.34408M9.27134 8.79803L10.5418 16.5313M9.27134 8.79803C9.12954 8.94414 9.05149 9.14054 9.05431 9.34412M9.27134 8.79803L9.10431 9.34377M10.5918 9.34408C10.5918 9.34422 10.5918 9.34435 10.5918 9.34449L10.5418 9.34377H10.5918V9.34408ZM10.5918 9.34408V16.5309M10.5918 16.5309C10.5918 16.5308 10.5918 16.5307 10.5918 16.5306L10.5418 16.5313M10.5918 16.5309V16.5313H10.5418M10.5918 16.5309C10.5932 16.6327 10.5744 16.7337 10.5364 16.8281C10.4985 16.9226 10.4421 17.0087 10.3705 17.0812C10.299 17.1538 10.2138 17.2114 10.1198 17.2507C10.0258 17.29 9.92494 17.3103 9.82306 17.3103C9.72118 17.3103 9.62032 17.29 9.52634 17.2507C9.43235 17.2114 9.34712 17.1538 9.27559 17.0812C9.20407 17.0087 9.14767 16.9226 9.10968 16.8281C9.07174 16.7337 9.05292 16.6327 9.05431 16.5309M10.5418 16.5313L9.10431 9.34377M9.05431 16.5309C9.05431 16.5308 9.05432 16.5307 9.05432 16.5306L9.10431 16.5313H9.05431V16.5309ZM9.05431 16.5309V9.34412M9.05431 9.34412C9.05431 9.34424 9.05432 9.34436 9.05432 9.34449L9.10431 9.34377M9.05431 9.34412V9.34377H9.10431M12.6255 8.79803C12.7674 8.65182 12.9615 8.56791 13.1652 8.56473C13.2681 8.56312 13.3703 8.58219 13.4657 8.62079C13.561 8.6594 13.6477 8.71676 13.7205 8.78947C13.7933 8.86219 13.8508 8.94878 13.8895 9.04412C13.9282 9.13933 13.9474 9.24133 13.946 9.34408M12.6255 8.79803L13.896 16.5313M12.6255 8.79803C12.4837 8.94413 12.4057 9.14051 12.4085 9.34408M12.6255 8.79803L12.4585 9.34377M13.946 9.34408C13.946 9.34422 13.946 9.34435 13.946 9.34449L13.896 9.34377H13.946V9.34408ZM13.946 9.34408V16.5309M13.946 16.5309C13.946 16.5308 13.946 16.5307 13.946 16.5306L13.896 16.5313M13.946 16.5309V16.5313H13.896M13.946 16.5309C13.9474 16.6327 13.9286 16.7337 13.8906 16.8281C13.8526 16.9226 13.7962 17.0087 13.7247 17.0812C13.6532 17.1538 13.5679 17.2114 13.474 17.2507C13.38 17.29 13.2791 17.3103 13.1772 17.3103C13.0754 17.3103 12.9745 17.29 12.8805 17.2507C12.7865 17.2114 12.7013 17.1538 12.6298 17.0812C12.5582 17.0087 12.5018 16.9226 12.4639 16.8281C12.4259 16.7337 12.4071 16.6327 12.4085 16.5309M13.896 16.5313L12.4585 9.34377M12.4085 16.5309C12.4085 16.5308 12.4085 16.5307 12.4085 16.5306L12.4585 16.5313H12.4085V16.5309ZM12.4085 16.5309V9.34408M12.4085 9.34408C12.4085 9.34422 12.4085 9.34435 12.4085 9.34449L12.4585 9.34377M12.4085 9.34408V9.34377H12.4585M18.9062 6.27919H19.8852L3.11473 4.79169C3.01949 4.79034 2.92493 4.80794 2.83654 4.84345C2.74816 4.87897 2.66772 4.9317 2.59989 4.99857C2.53206 5.06545 2.4782 5.14514 2.44144 5.23301C2.40467 5.32088 2.38574 5.41518 2.38574 5.51044C2.38574 5.60569 2.40467 5.69999 2.44144 5.78786C2.4782 5.87574 2.53206 5.95543 2.59989 6.0223C2.66772 6.08918 2.74816 6.14191 2.83654 6.17742C2.92493 6.21294 3.01949 6.23053 3.11473 6.22919V6.27919H3.11506H4.09411L5.29608 18.7064C5.42845 20.0769 6.59255 21.1334 7.9691 21.1334H15.0303C16.4069 21.1334 17.571 20.077 17.7033 18.7064L18.9062 6.27919ZM6.82657 18.5582L6.7768 18.563L6.82657 18.5582L5.6377 6.27919H17.3617L16.1728 18.5582C16.1154 19.1532 15.6278 19.5959 15.0303 19.5959H7.9691C7.37245 19.5959 6.88395 19.1524 6.82657 18.5582ZM11.5001 3.40419C12.3544 3.40419 13.0589 3.96547 13.2849 4.74169H9.71538C9.94135 3.96547 10.6459 3.40419 11.5001 3.40419Z" fill="white" stroke="white" stroke-width="0.1"/>
</svg>
